<svg width="500" height="500" viewBox="0 0 500 500" fill="none" xmlns="http://www.w3.org/2000/svg">
<path d="M308.5 204C310.5 201.5 272.37 166.839 246.5 148L285 216.5C285 216.5 306.5 206.5 308.5 204Z" fill="#3E0B0B"/>
<circle cx="303.5" cy="211.5" r="17.5" fill="white"/>
<path d="M246.5 147.5C216.351 183.384 205.699 204.801 191.5 244H307.5C293.455 204.52 279.307 183.537 246.5 147.5Z" fill="#6F1616"/>
<path d="M307.093 260.268C260.977 254.35 235.742 254.078 192.093 260.268C187.776 255.316 188.167 251.696 192.093 244.268C237.003 238.302 262.182 238.859 307.093 244.268C311.124 253.022 310.998 256.446 307.093 260.268Z" fill="white"/>
</svg>
